#!OML:ASF H:\Terrain\Patient Classification 1\Terrain2\Thursday\justin.ASF
:FULLY-SPECIFIED
:DEGREES
1974
root 20.6139 17.4452 -22.3703 22.6841 -79.3714 -22.3001
lowerback 7.28692 2.78745 5.97775
upperback 1.91167 4.12689 3.09886
thorax -1.90315 1.99874 -0.495713
lowerneck -14.3975 1.00941 -7.14228
upperneck 36.9591 2.29285 1.05246
head 15.2623 -0.251393 1.99612
rclavicle -4.92986e-014 -3.26007e-014
rhumerus -22.6963 -2.17215 -86.107
rradius 24.3644
rwrist -6.09638
rhand -18.9365 10.6187
rfingers 7.12502
rthumb 7.36645 -19.233
lclavicle -4.92986e-014 -3.26007e-014
lhumerus -35.7648 3.68709 86.1241
lradius 30.7038
lwrist -1.01601
lhand -11.5413 21.119
lfingers 7.12502
lthumb 14.499 50.5924
rfemur -7.73527 -9.92004 28.8302
rtibia 28.1518
rfoot -18.8119 -1.87298
rtoes 12.3246
lfemur -18.2015 2.9667 -12.1728
ltibia 42.1822
lfoot -22.4959 1.81012
ltoes -1.81539
1975
root 20.6127 17.4418 -22.3753 19.0145 -78.495 -18.5963
lowerback 7.16109 2.72911 5.60641
upperback 1.92166 4.01583 3.10026
thorax -1.85496 1.94782 -0.274279
lowerneck -13.8708 1.05141 -7.68906
upperneck 36.5296 2.36422 1.38632
head 14.9127 -0.221861 2.23135
rclavicle -5.96354e-016 2.38542e-015
rhumerus -22.8518 -2.00523 -85.9129
rradius 24.4833
rwrist -6.37085
rhand -18.5782 10.4651
rfingers 7.12502
rthumb 7.71232 -19.3743
lclavicle -5.96354e-016 2.38542e-015
lhumerus -35.6341 3.76667 86.1983
lradius 31.0578
lwrist -1.23392
lhand -10.7109 20.9202
lfingers 7.12502
lthumb 15.2989 50.3343
rfemur -7.8408 -10.0682 28.4837
rtibia 28.4095
rfoot -19.0683 -2.46732
rtoes 14.776
lfemur -18.1139 3.44164 -12.7114
ltibia 42.4528
lfoot -22.1628 2.11451
ltoes 0.41836
1976
root 20.6081 17.4464 -22.3873 15.5219 -77.6213 -14.975
lowerback 6.97687 2.6723 5.05207
upperback 1.89527 3.89479 3.0581
thorax -1.82045 1.89277 0.00594001
lowerneck -14.0458 1.13128 -7.83379
upperneck 36.8172 2.55779 1.38145
head 15.0801 -0.172618 2.29412
rclavicle 3.32964e-014 0
rhumerus -22.9964 -2.30072 -85.7406
rradius 24.4289
rwrist -6.06238
rhand -18.3763 10.4582
rfingers 7.12502
rthumb 7.90717 -19.374
lclavicle 3.32964e-014 0
lhumerus -35.6116 3.88968 86.3127
lradius 31.5954
lwrist -1.09585
lhand -10.9934 21.313
lfingers 7.12502
lthumb 15.0269 50.7477
rfemur -8.03644 -10.2858 28.0435
rtibia 28.6679
rfoot -19.2413 -2.94142
rtoes 16.6356
lfemur -18.0903 3.87209 -13.2995
ltibia 42.6491
lfoot -21.8853 2.35305
ltoes 3.28715
1977
root 20.6033 17.4482 -22.4037 14.3111 -76.4877 -13.8729
lowerback 6.94282 2.6009 4.98347
upperback 1.95679 3.7899 3.12271
thorax -1.75048 1.84255 0.121891
lowerneck -14.427 1.29096 -7.69789
upperneck 37.1857 2.84891 1.29062
head 15.3361 -0.0584676 2.29355
rclavicle -1.82882e-014 1.98785e-014
rhumerus -23.1754 -2.14012 -85.7019
rradius 24.6279
rwrist -6.55159
rhand -18.4409 10.4419
rfingers 7.12502
rthumb 7.84478 -19.3926
lclavicle -1.82882e-014 1.98785e-014
lhumerus -35.5931 3.67851 86.596
lradius 32.2704
lwrist -0.222064
lhand -11.9521 21.9144
lfingers 7.12502
lthumb 14.1032 51.4158
rfemur -8.05187 -10.7077 28.1793
rtibia 28.8709
rfoot -19.4687 -3.67035
rtoes 16.6496
lfemur -17.9929 4.30978 -13.2266
ltibia 42.8675
lfoot -21.6354 2.24639
ltoes 2.78533
1978
root 20.5946 17.4519 -22.4177 13.8693 -75.3344 -13.62
lowerback 6.85303 2.61919 5.1372
upperback 2.08509 3.80881 3.18307
thorax -1.56082 1.85584 0.106264
lowerneck -14.7252 1.40653 -7.29945
upperneck 37.3252 3.06177 1.01361
head 15.4777 0.0483967 2.151
rclavicle 3.79679e-014 -1.43125e-014
rhumerus -23.4654 -1.75976 -85.7073
rradius 25.1005
rwrist -7.66792
rhand -18.8059 10.4134
rfingers 7.12502
rthumb 7.49247 -19.4339
lclavicle 3.79679e-014 -1.43125e-014
lhumerus -35.3787 3.20392 86.8283
lradius 32.8253
lwrist 0.410726
lhand -12.3479 22.0569
lfingers 7.12502
lthumb 13.7217 51.5845
rfemur -7.89185 -10.9079 28.5002
rtibia 28.9703
rfoot -19.9075 -4.42568
rtoes 17.502
lfemur -17.774 4.96781 -12.9642
ltibia 43.1274
lfoot -21.3616 2.00462
ltoes 0.583478
1979
root 20.5861 17.4521 -22.4224 13.5211 -74.2005 -13.4863
lowerback 6.89173 2.63551 5.43526
upperback 2.10069 3.85163 3.2081
thorax -1.54607 1.87681 -0.0368946
lowerneck -14.6713 1.45106 -7.20096
upperneck 37.3446 3.09823 1.04887
head 15.4719 0.0887908 2.15613
rclavicle 7.65321e-015 6.36111e-015
rhumerus -23.9527 -1.74937 -85.6923
rradius 25.5311
rwrist -8.39771
rhand -19.3027 10.4401
rfingers 7.12502
rthumb 7.01293 -19.4237
lclavicle 7.65321e-015 6.36111e-015
lhumerus -35.4126 2.65215 87.0606
lradius 33.4085
lwrist 1.42217
lhand -13.2789 21.8176
lfingers 7.12502
lthumb 12.8244 51.4036
rfemur -7.64166 -10.9006 28.7923
rtibia 29.0351
rfoot -20.4051 -5.16271
rtoes 18.8166
lfemur -17.4791 5.57434 -12.7408
ltibia 43.3762
lfoot -21.4648 2.10789
ltoes -1.70553
1980
root 20.5797 17.4466 -22.4224 13.0111 -73.0309 -13.0616
lowerback 6.81967 2.5914 5.68121
upperback 2.06403 3.8067 3.24165
thorax -1.53142 1.85417 -0.132038
lowerneck -14.5255 1.43613 -7.42386
upperneck 37.3953 3.07353 1.23315
head 15.4544 0.0754698 2.2692
rclavicle 4.09496e-014 2.78299e-014
rhumerus -24.3764 -1.84493 -85.6069
rradius 25.843
rwrist -8.83426
rhand -19.5759 10.6341
rfingers 7.12502
rthumb 6.7492 -19.2383
lclavicle 4.09496e-014 2.78299e-014
lhumerus -35.5838 2.36535 87.2481
lradius 34.078
lwrist 2.42569
lhand -14.1207 21.5563
lfingers 7.12502
lthumb 12.0127 51.1916
rfemur -7.5834 -11.2905 28.965
rtibia 29.1155
rfoot -20.5649 -5.80371
rtoes 19.2329
lfemur -17.3073 5.82927 -12.6441
ltibia 43.5945
lfoot -21.3568 2.0281
ltoes -1.88661
